<svg xmlns="http://www.w3.org/2000/svg" viewBox="0 0 1024 1536" width="1024" height="1536" role="img" aria-label="Draga vista de cima"><defs><linearGradient id="deckDark" x1="0" y1="0" x2="1" y2="1"><stop offset="0" stop-color="#5d789b"/><stop offset="0.55" stop-color="#39506f"/><stop offset="1" stop-color="#24384d"/></linearGradient><linearGradient id="steel" x1="0" y1="0" x2="0" y2="1"><stop offset="0" stop-color="#eef3f8"/><stop offset="1" stop-color="#bccbd9"/></linearGradient><linearGradient id="whiteHull" x1="0" y1="0" x2="1" y2="0"><stop offset="0" stop-color="#ffffff"/><stop offset="0.55" stop-color="#e9eff5"/><stop offset="1" stop-color="#d9e3ed"/></linearGradient><linearGradient id="windowBlue" x1="0" y1="0" x2="0" y2="1"><stop offset="0" stop-color="#167fe1"/><stop offset="1" stop-color="#0a4e9d"/></linearGradient><linearGradient id="orange" x1="0" y1="0" x2="1" y2="1"><stop offset="0" stop-color="#ffb53d"/><stop offset="0.5" stop-color="#ff7c16"/><stop offset="1" stop-color="#e35b00"/></linearGradient><linearGradient id="green" x1="0" y1="0" x2="1" y2="1"><stop offset="0" stop-color="#4bdd67"/><stop offset="1" stop-color="#169a2c"/></linearGradient><linearGradient id="yellow" x1="0" y1="0" x2="1" y2="1"><stop offset="0" stop-color="#ffe56a"/><stop offset="1" stop-color="#e5ad00"/></linearGradient><linearGradient id="cyan" x1="0" y1="0" x2="0" y2="1"><stop offset="0" stop-color="#68e7ff"/><stop offset="1" stop-color="#1ab9e6"/></linearGradient><linearGradient id="blackRubber" x1="0" y1="0" x2="0" y2="1"><stop offset="0" stop-color="#252525"/><stop offset="1" stop-color="#090909"/></linearGradient><linearGradient id="hullGrad" x1="0" y1="0" x2="1" y2="1"><stop offset="0" stop-color="#ffd126"/><stop offset="0.55" stop-color="#d4a000"/><stop offset="1" stop-color="#d4a000"/></linearGradient></defs><path d="M512 20 C466 22 404 70 362 126 C303 204 268 344 262 504 L262 1186 C262 1358 290 1468 364 1510 C404 1532 454 1536 512 1536 C570 1536 620 1532 660 1510 C734 1468 762 1358 762 1186 L762 504 C756 344 721 204 662 126 C620 70 558 22 512 20 Z" fill="url(#hullGrad)"/><path d="M512 58 C474 60 426 100 392 150 C340 226 310 358 306 512 L306 1176 C306 1316 327 1408 374 1446 C407 1472 455 1480 512 1480 C569 1480 617 1472 650 1446 C697 1408 718 1316 718 1176 L718 512 C714 358 684 226 632 150 C598 100 550 60 512 58 Z" fill="url(#steel)"/><path d="M512 58 C474 60 426 100 392 150 C340 226 310 358 306 512 L306 1176 C306 1316 327 1408 374 1446 C407 1472 455 1480 512 1480 C569 1480 617 1472 650 1446 C697 1408 718 1316 718 1176 L718 512 C714 358 684 226 632 150 C598 100 550 60 512 58 Z" fill="url(#deckDark)" fill-opacity="0.86"/><path d="M512 88 L596 246 L428 246 Z" fill="#7f97b7" opacity="0.72"/><path d="M512 88 L512 248" stroke="#f3f8fd" stroke-width="8" stroke-linecap="round"/><path d="M466 188 H558" stroke="#eef4fb" stroke-width="10" stroke-linecap="round"/><circle cx="432" cy="150" r="15" fill="#dce5ef"/><circle cx="592" cy="150" r="15" fill="#dce5ef"/><circle cx="404" cy="210" r="15" fill="#dce5ef"/><circle cx="620" cy="210" r="15" fill="#dce5ef"/><rect x="336" y="300" width="352" height="514" rx="18" fill="#617b98"/><rect x="374" y="340" width="276" height="136" rx="12" fill="#839ab5"/><rect x="374" y="500" width="276" height="136" rx="12" fill="#839ab5"/><rect x="426" y="660" width="172" height="124" rx="16" fill="url(#orange)"/><path d="M512 784 V1060" stroke="#ffdca2" stroke-width="16" stroke-linecap="round"/><path d="M512 920 L438 1020" stroke="#c6d2de" stroke-width="14" stroke-linecap="round"/><path d="M512 920 L586 1020" stroke="#c6d2de" stroke-width="14" stroke-linecap="round"/><circle cx="438" cy="1020" r="26" fill="#f0f4f8"/><circle cx="586" cy="1020" r="26" fill="#f0f4f8"/><circle cx="512" cy="920" r="20" fill="#fff"/><path d="M350 1036 H674 L692 1080 V1160 L652 1196 H372 L332 1160 V1080 Z" fill="url(#whiteHull)"/><rect x="450" y="978" width="124" height="106" rx="8" fill="#e6eef6"/><circle cx="512" cy="952" r="24" fill="#ffffff"/><rect x="506" y="952" width="12" height="76" rx="6" fill="#d2dce6"/><g fill="url(#windowBlue)"><path d="M408 1110 H466 L458 1142 H416 Z"/><rect x="474" y="1110" width="62" height="32"/><rect x="544" y="1110" width="62" height="32"/><path d="M616 1110 H558 L566 1142 H608 Z"/></g><rect x="448" y="1246" width="128" height="140" rx="8" fill="#dbe5ef"/><rect x="484" y="1274" width="14" height="88" fill="#607793"/><rect x="505" y="1274" width="14" height="88" fill="#607793"/><rect x="526" y="1274" width="14" height="88" fill="#607793"/><path d="M512 88 L512 1448" stroke="#ffffff" stroke-opacity="0.14" stroke-width="5"/></svg>