<svg xmlns="http://www.w3.org/2000/svg" viewBox="0 0 1024 1536" width="1024" height="1536" role="img" aria-label="Navio de cruzeiro visto de cima"><defs><linearGradient id="hullWhite" x1="0" y1="0" x2="1" y2="1"><stop offset="0" stop-color="#ffffff"/><stop offset="0.55" stop-color="#ecf2f8"/><stop offset="1" stop-color="#dbe4ee"/></linearGradient><linearGradient id="hullBlue" x1="0" y1="0" x2="0" y2="1"><stop offset="0" stop-color="#31b1ff"/><stop offset="1" stop-color="#0f6fd0"/></linearGradient><linearGradient id="deckBlue" x1="0" y1="0" x2="1" y2="1"><stop offset="0" stop-color="#8fb4d9"/><stop offset="0.5" stop-color="#5e84aa"/><stop offset="1" stop-color="#4b6d92"/></linearGradient><linearGradient id="pool" x1="0" y1="0" x2="0" y2="1"><stop offset="0" stop-color="#58dfff"/><stop offset="1" stop-color="#18b6e8"/></linearGradient><linearGradient id="windowBlue" x1="0" y1="0" x2="0" y2="1"><stop offset="0" stop-color="#147edf"/><stop offset="1" stop-color="#0d4e9d"/></linearGradient></defs><path d="M512 18 C468 20 400 64 356 118 C296 192 260 332 254 510 L254 1200 C254 1360 284 1468 356 1510 C398 1534 450 1536 512 1536 C574 1536 626 1534 668 1510 C740 1468 770 1360 770 1200 L770 510 C764 332 728 192 668 118 C624 64 556 20 512 18 Z" fill="url(#hullWhite)"/><path d="M512 54 C476 56 430 92 396 142 C346 214 316 350 312 514 L312 1190 C312 1320 332 1406 376 1442 C408 1468 454 1476 512 1476 C570 1476 616 1468 648 1442 C692 1406 712 1320 712 1190 L712 514 C708 350 678 214 628 142 C594 92 548 56 512 54 Z" fill="url(#deckBlue)"/><path d="M512 54 C476 56 430 92 396 142 C346 214 316 350 312 514 L312 1190 C312 1320 332 1406 376 1442 C408 1468 454 1476 512 1476 C570 1476 616 1468 648 1442 C692 1406 712 1320 712 1190 L712 514 C708 350 678 214 628 142 C594 92 548 56 512 54 Z" fill="none" stroke="url(#hullBlue)" stroke-width="18"/><path d="M512 78 L594 236 L430 236 Z" fill="#a9c1da" opacity="0.7"/><path d="M512 82 L512 238" stroke="#f6fbff" stroke-width="8" stroke-linecap="round"/><path d="M468 184 H556" stroke="#f0f5fb" stroke-width="10" stroke-linecap="round"/><g fill="#f9fcff"><circle cx="432" cy="148" r="16"/><circle cx="592" cy="148" r="16"/><circle cx="404" cy="208" r="16"/><circle cx="620" cy="208" r="16"/></g><g><rect x="338" y="286" width="348" height="140" rx="18" fill="#f8fbff"/><rect x="356" y="304" width="312" height="24" rx="8" fill="#d8e6f2"/><g fill="url(#windowBlue)"><rect x="366" y="342" width="22" height="50" rx="6"/><rect x="396" y="342" width="22" height="50" rx="6"/><rect x="426" y="342" width="22" height="50" rx="6"/><rect x="456" y="342" width="22" height="50" rx="6"/><rect x="486" y="342" width="22" height="50" rx="6"/><rect x="516" y="342" width="22" height="50" rx="6"/><rect x="546" y="342" width="22" height="50" rx="6"/><rect x="576" y="342" width="22" height="50" rx="6"/><rect x="606" y="342" width="22" height="50" rx="6"/></g></g><g><rect x="330" y="448" width="364" height="130" rx="18" fill="#f8fbff"/><rect x="350" y="466" width="324" height="94" rx="14" fill="url(#pool)"/><circle cx="390" cy="514" r="12" fill="#ffffff" opacity="0.9"/><circle cx="634" cy="514" r="12" fill="#ffffff" opacity="0.9"/><rect x="482" y="472" width="60" height="82" rx="12" fill="#88efff" opacity="0.85"/></g><g><rect x="324" y="606" width="376" height="144" rx="18" fill="#f8fbff"/><rect x="342" y="628" width="340" height="16" rx="8" fill="#d7e6f3"/><g fill="#ff8d3a"><rect x="360" y="664" width="72" height="44" rx="8"/><rect x="448" y="664" width="72" height="44" rx="8"/><rect x="536" y="664" width="72" height="44" rx="8"/></g><g fill="#35c64c"><circle cx="382" cy="690" r="8"/><circle cx="470" cy="690" r="8"/><circle cx="558" cy="690" r="8"/></g></g><g><rect x="318" y="782" width="388" height="208" rx="20" fill="#f8fbff"/><g fill="url(#windowBlue)"><rect x="342" y="812" width="24" height="58" rx="6"/><rect x="372" y="812" width="24" height="58" rx="6"/><rect x="402" y="812" width="24" height="58" rx="6"/><rect x="432" y="812" width="24" height="58" rx="6"/><rect x="462" y="812" width="24" height="58" rx="6"/><rect x="492" y="812" width="24" height="58" rx="6"/><rect x="522" y="812" width="24" height="58" rx="6"/><rect x="552" y="812" width="24" height="58" rx="6"/><rect x="582" y="812" width="24" height="58" rx="6"/><rect x="612" y="812" width="24" height="58" rx="6"/><rect x="342" y="888" width="24" height="58" rx="6"/><rect x="372" y="888" width="24" height="58" rx="6"/><rect x="402" y="888" width="24" height="58" rx="6"/><rect x="432" y="888" width="24" height="58" rx="6"/><rect x="462" y="888" width="24" height="58" rx="6"/><rect x="492" y="888" width="24" height="58" rx="6"/><rect x="522" y="888" width="24" height="58" rx="6"/><rect x="552" y="888" width="24" height="58" rx="6"/><rect x="582" y="888" width="24" height="58" rx="6"/><rect x="612" y="888" width="24" height="58" rx="6"/></g></g><g><path d="M350 1020 H674 L714 1060 V1160 L668 1202 H356 L310 1160 V1060 Z" fill="#f8fbff"/><path d="M380 1058 H644 L662 1088 H362 Z" fill="#d6e5f2"/><g fill="url(#windowBlue)"><path d="M388 1082 H446 L438 1114 H396 Z"/><rect x="454" y="1082" width="62" height="32"/><rect x="524" y="1082" width="62" height="32"/><path d="M636 1082 H578 L586 1114 H628 Z"/></g><rect x="450" y="970" width="124" height="108" rx="8" fill="#eef4fa"/><rect x="476" y="922" width="72" height="62" rx="6" fill="#ffffff"/><circle cx="512" cy="890" r="24" fill="#ffffff"/><rect x="506" y="890" width="12" height="80" rx="6" fill="#d3dde7"/></g><g><rect x="450" y="1240" width="124" height="146" rx="10" fill="#f0f6fb"/><rect x="486" y="1270" width="12" height="90" fill="#6b85a0"/><rect x="506" y="1270" width="12" height="90" fill="#6b85a0"/><rect x="526" y="1270" width="12" height="90" fill="#6b85a0"/><circle cx="372" cy="1326" r="22" fill="#ffffff"/><circle cx="652" cy="1326" r="22" fill="#ffffff"/><rect x="336" y="1264" width="74" height="112" rx="6" fill="#6f8dab" opacity="0.55"/><rect x="614" y="1264" width="74" height="112" rx="6" fill="#6f8dab" opacity="0.55"/><rect x="360" y="1326" width="24" height="34" fill="#c0cedd"/><rect x="640" y="1326" width="24" height="34" fill="#c0cedd"/></g><path d="M512 82 L512 1474" stroke="#ffffff" stroke-opacity="0.14" stroke-width="5"/></svg>